<?xml version="1.0" encoding="UTF-8"?>
<!DOCTYPE svg PUBLIC "-//W3C//DTD SVG 1.1//EN" "http://www.w3.org/Graphics/SVG/1.1/DTD/svg11.dtd">
<!-- Creator: CorelDRAW X7 -->
<svg xmlns="http://www.w3.org/2000/svg" xml:space="preserve" width="324.273mm" height="254mm" version="1.1" style="shape-rendering:geometricPrecision; text-rendering:geometricPrecision; image-rendering:optimizeQuality; fill-rule:evenodd; clip-rule:evenodd"
viewBox="0 0 32427 25400"
 xmlns:xlink="http://www.w3.org/1999/xlink">
 <defs>
  <style type="text/css">
   <![CDATA[
    .fil0 {fill:none}
    .fil6 {fill:#FEFEFE}
    .fil4 {fill:#FEFEFE}
    .fil3 {fill:#00BCF6}
    .fil8 {fill:#4389F5}
    .fil9 {fill:#526471}
    .fil7 {fill:#8BC539}
    .fil10 {fill:#D1232A}
    .fil5 {fill:#F6921D}
    .fil1 {fill:black;fill-rule:nonzero}
    .fil2 {fill:#526471;fill-rule:nonzero}
   ]]>
  </style>
 </defs>
 <g id="Camada_x0020_1">
  <metadata id="CorelCorpID_0Corel-Layer"/>
  <polygon class="fil0" points="0,0 32427,0 32427,25400 0,25400 "/>
  <path class="fil1" d="M10483 8192c-181,0 -300,81 -355,241l-1214 3399 796 0 240 -743 1411 0 241 743 785 0 -1308 -3640 -596 0zm168 732l502 1549 -1004 0 502 -1549zm2844 1611l920 0c356,0 631,-101 827,-303 195,-216 293,-505 293,-869 0,-382 -101,-675 -304,-878 -194,-195 -485,-293 -867,-293l-1235 0c-104,0 -193,39 -266,116 -74,76 -110,166 -110,271l0 3253 742 0 0 -1297zm11 -659l0 -1056 763 0c349,0 523,177 523,534 0,355 -188,529 -565,522l-721 0zm2416 816c20,794 512,1192 1474,1192 920,0 1401,-356 1443,-1067 22,-459 -170,-759 -575,-899 -307,-105 -596,-188 -868,-251 -474,-105 -711,-272 -711,-502 14,-279 212,-422 596,-429 314,0 534,104 659,314 69,139 181,209 334,209l419 0c-42,-753 -492,-1129 -1350,-1129 -899,-7 -1355,373 -1369,1140 0,481 356,812 1066,993 265,70 506,136 722,199 223,62 335,181 335,355 7,300 -227,450 -701,450 -474,0 -725,-192 -753,-575l-721 0zm3283 1140l743 0 0 -3640 -366 0c-251,0 -377,129 -377,387l0 3253z"/>
  <path class="fil1" d="M20029 17107l0 -268c-143,57 -446,143 -818,143l-200 0c-589,0 -726,-218 -726,-812l0 -1876c0,-389 -166,-572 -486,-572l-321 0 0 2499c0,938 509,1453 1430,1453l303 0c646,0 818,-223 818,-567zm2819 -520l0 -709c0,-1064 -617,-1384 -1304,-1384 -812,0 -1120,412 -1120,755l0 246 28 0c115,-143 423,-355 978,-355 458,0 663,132 663,566l0 40 -268 0c-1133,0 -1533,418 -1533,967 0,566 503,978 1235,978l155 0c686,0 1166,-452 1166,-1104zm-749 6c0,314 -160,474 -492,474 -337,0 -531,-143 -531,-383 0,-251 165,-389 749,-389l274 0 0 298zm4352 -561c0,-909 -600,-1550 -1384,-1550 -417,0 -680,246 -835,469l0 -897c0,-361 -206,-532 -503,-532l-263 0 0 2613c0,927 663,1573 1453,1573 937,0 1532,-749 1532,-1676zm-795 132c0,497 -274,863 -657,863 -458,0 -761,-291 -761,-1000 0,-481 292,-864 681,-864 469,0 737,252 737,1001z"/>
  <path class="fil2" d="M4409 20789l78 68c-176,160 -383,240 -620,240 -256,0 -473,-90 -653,-270 -179,-179 -268,-396 -268,-652 0,-253 89,-471 268,-651 180,-180 397,-270 653,-270 237,0 444,80 620,240l-78 69c-154,-137 -335,-205 -542,-205 -226,0 -418,80 -579,240 -160,159 -240,351 -240,577 0,227 80,420 240,579 161,160 353,239 579,239 207,0 388,-68 542,-204zm865 -918c171,0 317,60 437,180 121,121 181,267 181,438 0,170 -60,315 -181,436 -120,121 -266,182 -437,182 -170,0 -315,-61 -436,-182 -121,-121 -181,-266 -181,-436 0,-171 60,-317 181,-438 121,-120 266,-180 436,-180zm0 107c-140,0 -261,50 -361,150 -99,100 -149,221 -149,361 0,141 50,261 149,360 100,100 221,149 361,149 141,0 261,-49 361,-149 100,-99 150,-219 150,-360 0,-140 -50,-261 -150,-361 -100,-100 -220,-150 -361,-150zm835 -8l102 0 0 27c63,-61 138,-92 225,-92 91,0 168,32 232,96 17,17 31,35 44,56 14,-20 30,-39 47,-56 64,-64 141,-96 232,-96 91,0 168,32 232,96 60,62 92,136 95,221l0 853 -102 0 0 -853 2 0c-3,-58 -25,-108 -66,-149 -46,-44 -99,-66 -161,-66 -63,0 -116,22 -161,66 -45,44 -67,100 -67,166l0 836 -100 0 0 -853 1 0c-3,-58 -26,-108 -67,-149 -45,-44 -99,-66 -161,-66 -62,0 -115,22 -159,66 -39,38 -61,85 -66,140l0 862 -102 0 0 -1105zm1452 0l102 0 0 155c19,-25 40,-50 63,-73 121,-120 267,-180 437,-180 171,0 316,60 436,180 121,120 181,266 181,437 0,170 -60,315 -181,436 -120,121 -265,182 -436,182 -170,0 -316,-61 -437,-182 -23,-24 -44,-49 -63,-74l0 645 -102 0 0 -1526zm102 414l0 211c19,97 65,181 139,254 100,101 220,151 361,151 141,0 261,-50 361,-150 99,-100 149,-220 149,-361 0,-140 -50,-261 -149,-361 -100,-100 -220,-150 -361,-150 -141,0 -261,50 -361,150 -74,74 -120,159 -139,256zm1760 706c-139,0 -248,-41 -330,-122 -81,-82 -123,-185 -126,-309l0 -690 102 0 0 681c0,93 34,173 102,239 67,67 150,101 251,101 93,0 174,-34 241,-100 67,-67 101,-147 101,-240l0 -681 102 0 0 690c-3,124 -45,227 -126,309 -81,81 -187,122 -317,122zm819 -1120l0 -469 101 0 0 469 225 0 0 102 -225 0 0 1003 -101 0 0 -1003 -225 0 0 -102 225 0zm1681 1105l-101 0 0 -226c-20,27 -41,52 -64,76 -120,121 -266,182 -438,182 -169,0 -314,-61 -436,-182 -120,-121 -181,-266 -181,-436 0,-171 61,-317 181,-438 122,-120 267,-180 436,-180 172,0 318,60 438,181 23,23 44,49 64,75l0 -157 101 0 0 1105zm-101 -486l0 -200c-19,-100 -65,-186 -140,-261 -100,-100 -221,-150 -362,-150 -141,0 -261,50 -361,150 -99,100 -149,221 -149,361 0,141 50,261 149,360 100,100 220,149 361,149 141,0 262,-50 362,-150 75,-74 121,-161 140,-259zm777 506c-118,-22 -223,-79 -314,-170 -121,-121 -182,-266 -182,-437 0,-170 61,-316 181,-437 121,-120 267,-180 436,-180 172,0 318,60 438,181 25,24 47,50 66,76l-107 39c-11,-13 -23,-27 -36,-40 -99,-99 -220,-149 -361,-149 -140,0 -260,50 -359,149 -100,100 -150,220 -150,361 0,141 50,261 150,361 99,99 219,149 359,149 141,0 262,-50 361,-150 13,-12 25,-26 36,-39l107 39c-19,27 -41,52 -66,77 -120,121 -266,182 -438,182 -14,0 -28,-1 -42,-2l-14 36c78,6 128,32 150,78 12,24 18,48 18,71 0,19 -5,38 -14,56 -19,38 -55,62 -108,70 -20,3 -38,5 -55,5 -29,0 -53,-5 -74,-14 -33,-15 -61,-31 -85,-50l47 -51c29,30 60,45 93,45 8,0 18,-1 27,-4 40,-9 60,-33 60,-72l0 -8c-3,-37 -45,-55 -126,-55 -15,0 -30,1 -47,1l49 -118zm2006 -20l-102 0 0 -226c-19,27 -41,52 -63,76 -121,121 -267,182 -438,182 -170,0 -315,-61 -436,-182 -121,-121 -181,-266 -181,-436 0,-171 60,-317 181,-438 121,-120 266,-180 436,-180 171,0 317,60 438,181 22,23 44,49 63,75l0 -157 102 0 0 1105zm-102 -486l0 -200c-18,-100 -65,-186 -140,-261 -100,-100 -220,-150 -361,-150 -141,0 -261,50 -361,150 -100,100 -150,221 -150,361 0,141 50,261 150,360 100,100 220,149 361,149 141,0 261,-50 361,-150 75,-74 122,-161 140,-259zm-496 -999c50,36 85,54 104,54l5 0c16,-6 27,-19 34,-40 3,-12 4,-33 4,-63l85 17c-2,31 -6,57 -13,77 -16,47 -42,78 -79,95 -10,3 -21,5 -32,5 -35,0 -79,-19 -134,-58 -49,-37 -84,-56 -104,-56 -2,0 -4,1 -5,2 -14,5 -25,18 -32,41 -4,11 -6,32 -6,62l-83 -18c1,-31 5,-57 12,-76 15,-47 42,-78 80,-94 9,-5 19,-7 32,-7 34,0 78,20 132,59zm1420 281c171,0 317,60 437,180 120,121 180,267 180,438 0,170 -60,315 -180,436 -120,121 -266,182 -437,182 -170,0 -315,-61 -436,-182 -121,-121 -181,-266 -181,-436 0,-171 60,-317 181,-438 121,-120 266,-180 436,-180zm0 107c-141,0 -261,50 -361,150 -99,100 -149,221 -149,361 0,141 50,261 149,360 100,100 220,149 361,149 141,0 261,-49 361,-149 100,-99 150,-219 150,-360 0,-140 -50,-261 -150,-361 -100,-100 -220,-150 -361,-150zm2341 205l-274 -755 -275 755 549 0zm-222 -908l653 1800 -107 0 -288 -792 -622 0 -293 792 -108 0 661 -1800 104 0zm774 695l102 0 0 155c18,-25 40,-50 63,-73 121,-120 266,-180 437,-180 170,0 316,60 436,180 121,120 181,266 181,437 0,170 -60,315 -181,436 -120,121 -266,182 -436,182 -171,0 -316,-61 -437,-182 -23,-24 -45,-49 -63,-74l0 645 -102 0 0 -1526zm102 414l0 211c18,97 64,181 138,254 101,101 221,151 362,151 141,0 261,-50 361,-150 99,-100 149,-220 149,-361 0,-140 -50,-261 -149,-361 -100,-100 -220,-150 -361,-150 -141,0 -261,50 -362,150 -74,74 -120,159 -138,256zm1435 -1109l0 1800 -102 0 0 -1800 102 0zm392 695l0 1105 -100 0 0 -1105 100 0zm-49 -390c27,0 51,9 70,29 20,19 30,43 30,70 0,29 -10,53 -30,72 -19,20 -43,30 -70,30 -29,0 -52,-10 -72,-30 -20,-19 -30,-43 -30,-72 0,-27 10,-51 30,-70 20,-20 43,-29 72,-29zm1281 1229l107 39c-19,27 -41,52 -66,77 -120,121 -266,182 -438,182 -169,0 -315,-61 -436,-182 -120,-121 -181,-266 -181,-437 0,-170 61,-316 181,-437 121,-120 267,-180 436,-180 172,0 318,60 438,181 25,24 47,50 66,76l-107 39c-11,-13 -22,-27 -35,-40 -100,-99 -221,-149 -362,-149 -140,0 -260,50 -359,149 -100,100 -150,220 -150,361 0,141 50,261 150,361 99,99 219,149 359,149 141,0 262,-50 362,-150 13,-12 24,-26 35,-39zm1488 266l-102 0 0 -226c-19,27 -41,52 -63,76 -121,121 -267,182 -438,182 -170,0 -315,-61 -436,-182 -121,-121 -181,-266 -181,-436 0,-171 60,-317 181,-438 121,-120 266,-180 436,-180 171,0 317,60 438,181 22,23 44,49 63,75l0 -157 102 0 0 1105zm-102 -486l0 -200c-18,-100 -65,-186 -140,-261 -100,-100 -220,-150 -361,-150 -141,0 -261,50 -361,150 -99,100 -149,221 -149,361 0,141 50,261 149,360 100,100 220,149 361,149 141,0 261,-50 361,-150 75,-74 122,-161 140,-259zm1530 486l-102 0 0 -226c-19,27 -41,52 -63,76 -121,121 -267,182 -438,182 -170,0 -315,-61 -436,-182 -121,-121 -181,-266 -181,-436 0,-171 60,-317 181,-438 121,-120 266,-180 436,-180 171,0 317,60 438,181 22,23 44,49 63,75l0 -852 102 0 0 1800zm-102 -486l0 -200c-19,-100 -65,-186 -140,-261 -100,-100 -220,-150 -361,-150 -141,0 -261,50 -361,150 -100,100 -150,221 -150,361 0,141 50,261 150,360 100,100 220,149 361,149 141,0 261,-50 361,-150 75,-74 121,-161 140,-259zm1530 486l-102 0 0 -226c-20,27 -41,52 -64,76 -120,121 -266,182 -437,182 -170,0 -315,-61 -437,-182 -120,-121 -181,-266 -181,-436 0,-171 61,-317 181,-438 122,-120 267,-180 437,-180 171,0 317,60 437,181 23,23 44,49 64,75l0 -157 102 0 0 1105zm-102 -486l0 -200c-19,-100 -65,-186 -140,-261 -100,-100 -221,-150 -361,-150 -142,0 -261,50 -361,150 -100,100 -150,221 -150,361 0,141 50,261 150,360 100,100 219,149 361,149 140,0 261,-50 361,-150 75,-74 121,-161 140,-259z"/>
  <path class="fil2" d="M7328 23181l970 0c-24,-77 -64,-144 -121,-201 -100,-100 -221,-150 -362,-150 -140,0 -261,50 -361,150 -59,60 -101,127 -126,201zm-19 104c-3,17 -4,36 -4,56 0,142 50,262 150,361 99,99 220,149 360,149 141,0 262,-50 362,-151 17,-17 33,-35 48,-53l109 38c-13,21 -40,52 -81,92 -120,121 -266,182 -438,182 -169,0 -315,-61 -435,-181 -121,-122 -182,-267 -182,-437 0,-171 61,-317 182,-437 120,-121 266,-181 435,-181 172,0 318,60 438,181 106,107 159,234 159,381l-1103 0zm2425 -354c-128,-43 -229,-101 -303,-176 -74,-74 -111,-164 -111,-270 0,-104 37,-193 111,-267 74,-75 164,-112 270,-112 105,0 195,37 270,112 41,40 69,84 85,133l-91 36c-14,-36 -36,-70 -66,-100 -55,-55 -120,-82 -198,-82 -77,0 -143,27 -198,82 -54,54 -82,120 -82,198 0,77 28,144 82,199 51,50 121,95 211,137 144,47 266,119 364,218 104,103 156,228 156,375 0,148 -53,274 -156,378 -104,105 -230,157 -377,157 -147,0 -273,-53 -376,-158 -84,-83 -134,-180 -150,-290l95 -35c10,98 52,183 125,255 84,85 187,127 306,127 120,0 222,-42 307,-127 85,-85 127,-187 127,-307 0,-119 -42,-221 -127,-305 -75,-75 -166,-134 -274,-178zm821 -109l0 1105 -100 0 0 -1105 100 0zm-49 -390c27,0 51,9 70,29 20,19 30,43 30,70 0,29 -10,53 -30,72 -19,20 -43,30 -70,30 -28,0 -52,-10 -72,-30 -20,-19 -30,-43 -30,-72 0,-27 10,-51 30,-70 20,-20 44,-29 72,-29zm613 902c-85,-47 -145,-86 -178,-120 -51,-52 -78,-114 -78,-187 0,-73 27,-135 78,-187 52,-53 114,-79 187,-79 73,0 134,24 182,73 47,47 70,100 70,160l0 5 -87 36c-8,-57 -26,-100 -54,-129 -28,-28 -65,-43 -111,-43 -45,0 -83,16 -116,48 -32,33 -48,71 -48,116 0,45 16,84 48,116 19,19 59,49 119,87 96,51 164,98 205,138 63,65 95,142 95,231 0,91 -32,169 -95,233 -64,64 -141,96 -232,96 -91,0 -168,-32 -231,-96 -64,-64 -96,-134 -96,-210l101 -26c0,66 22,120 66,165 45,44 98,67 160,67 62,0 116,-23 160,-67 46,-45 68,-99 68,-162 0,-62 -22,-116 -68,-159 -23,-24 -72,-59 -145,-106zm674 -512l0 -469 100 0 0 469 225 0 0 102 -225 0 0 1003 -100 0 0 -1003 -225 0 0 -102 225 0zm562 359l970 0c-24,-77 -64,-144 -121,-201 -100,-100 -221,-150 -362,-150 -140,0 -261,50 -361,150 -59,60 -101,127 -126,201zm-19 104c-3,17 -4,36 -4,56 0,142 50,262 150,361 99,99 220,149 360,149 141,0 262,-50 362,-151 17,-17 33,-35 49,-53l108 38c-13,21 -40,52 -81,92 -120,121 -266,182 -438,182 -169,0 -314,-61 -435,-181 -121,-122 -182,-267 -182,-437 0,-171 61,-317 182,-437 121,-121 266,-181 435,-181 172,0 318,60 438,181 106,107 159,234 159,381l-1103 0zm1275 -463l102 0 0 27c63,-61 138,-91 225,-91 91,0 169,31 232,95 17,17 32,35 45,56 13,-20 29,-38 47,-56 63,-64 140,-95 231,-95 91,0 168,31 232,95 60,62 92,136 95,221l0 853 -101 0 0 -853 1 0c-3,-58 -25,-108 -66,-149 -45,-44 -99,-66 -161,-66 -62,0 -116,22 -161,66 -44,45 -66,100 -66,166l0 836 -101 0 0 -853 1 0c-3,-58 -26,-108 -67,-149 -45,-44 -98,-66 -161,-66 -62,0 -115,22 -159,66 -39,39 -61,85 -66,141l0 861 -102 0 0 -1105zm2650 1105l-102 0 0 -225c-20,26 -41,51 -63,75 -121,121 -267,182 -438,182 -170,0 -315,-61 -436,-181 -121,-122 -182,-267 -182,-437 0,-171 61,-317 182,-437 121,-121 266,-181 436,-181 171,0 317,60 438,181 22,23 43,49 63,75l0 -157 102 0 0 1105zm-102 -486l0 -200c-19,-99 -65,-186 -140,-261 -100,-100 -221,-150 -361,-150 -141,0 -261,50 -361,150 -100,100 -150,221 -150,361 0,142 50,262 150,361 100,99 220,149 361,149 140,0 261,-50 361,-151 75,-74 121,-161 140,-259zm627 -107c-85,-47 -145,-86 -178,-120 -52,-52 -78,-114 -78,-187 0,-73 26,-135 78,-187 52,-53 114,-79 187,-79 73,0 134,24 182,73 47,47 70,100 70,160l0 5 -87 36c-8,-57 -26,-100 -54,-129 -28,-28 -65,-43 -111,-43 -45,0 -83,16 -116,48 -32,33 -48,71 -48,116 0,45 16,84 48,116 19,19 59,49 119,87 96,51 164,98 205,138 63,65 95,142 95,231 0,91 -32,169 -95,233 -64,64 -141,96 -232,96 -91,0 -168,-32 -231,-96 -64,-64 -96,-134 -96,-210l101 -26c0,66 22,120 66,165 45,44 98,67 160,67 62,0 116,-23 160,-67 46,-45 68,-99 68,-162 0,-62 -22,-116 -68,-159 -23,-24 -72,-59 -145,-106zm1311 -1207l0 1800 -102 0 0 -1800 102 0zm383 942l0 858 -102 0 0 -1105 102 0 0 72c92,-92 198,-138 321,-138 130,0 237,41 319,123 81,82 123,185 125,309l0 739 -100 0 0 -729c0,-95 -34,-175 -103,-241 -67,-66 -148,-99 -241,-99 -93,0 -173,33 -241,98 -36,37 -63,74 -80,113zm1157 -247l0 -469 100 0 0 469 225 0 0 102 -225 0 0 1003 -100 0 0 -1003 -225 0 0 -102 225 0zm562 359l970 0c-24,-77 -64,-144 -121,-201 -100,-100 -221,-150 -361,-150 -141,0 -261,50 -362,150 -59,60 -101,127 -126,201zm-19 104c-3,17 -4,36 -4,56 0,142 50,262 150,361 100,99 220,149 361,149 140,0 261,-50 361,-151 17,-17 33,-35 49,-53l108 38c-13,21 -40,52 -81,92 -120,121 -266,182 -437,182 -170,0 -315,-61 -436,-181 -121,-122 -182,-267 -182,-437 0,-171 61,-317 182,-437 121,-121 266,-181 436,-181 171,0 317,60 437,181 106,107 159,234 159,381l-1103 0zm1391 -1158l0 1800 -102 0 0 -1800 102 0zm392 695l0 1105 -100 0 0 -1105 100 0zm-49 -390c27,0 51,9 70,29 20,19 30,43 30,70 0,29 -10,53 -30,72 -19,20 -43,30 -70,30 -29,0 -52,-10 -72,-30 -20,-19 -30,-43 -30,-72 0,-27 10,-51 30,-70 20,-20 43,-29 72,-29zm1385 804c-20,-97 -66,-182 -139,-256 -100,-100 -221,-150 -362,-150 -141,0 -261,50 -360,150 -100,100 -150,221 -150,361 0,142 50,262 150,361 99,100 219,150 360,150 141,0 262,-50 362,-150 72,-73 118,-157 139,-254l0 -212zm-2 472c-19,24 -40,47 -61,69 -120,121 -266,182 -438,182 -169,0 -315,-61 -436,-181 -120,-122 -181,-267 -181,-437 0,-171 61,-317 181,-437 121,-119 267,-180 436,-180 172,0 318,60 438,180 23,23 44,49 64,75l0 -157 101 0 0 858c0,166 -59,308 -176,425 -121,121 -267,182 -437,182 -171,0 -317,-61 -438,-182 -24,-24 -46,-50 -66,-76l107 -39c11,13 24,26 37,39 99,100 219,150 360,150 140,0 260,-50 360,-150 91,-91 141,-198 149,-321zm392 -527l970 0c-24,-77 -64,-144 -121,-201 -100,-100 -221,-150 -362,-150 -140,0 -261,50 -361,150 -59,60 -101,127 -126,201zm-19 104c-3,17 -4,36 -4,56 0,142 50,262 150,361 99,99 220,149 360,149 141,0 262,-50 362,-151 17,-17 33,-35 49,-53l108 38c-13,21 -40,52 -81,92 -120,121 -266,182 -438,182 -169,0 -314,-61 -435,-181 -121,-122 -182,-267 -182,-437 0,-171 61,-317 182,-437 121,-121 266,-181 435,-181 172,0 318,60 438,181 106,107 159,234 159,381l-1103 0zm1377 -216l0 858 -102 0 0 -1105 102 0 0 72c92,-92 198,-138 321,-138 130,0 237,41 319,123 81,82 123,185 125,309l0 739 -100 0 0 -729c0,-95 -34,-175 -103,-241 -67,-66 -148,-99 -241,-99 -93,0 -173,33 -241,98 -36,37 -63,74 -80,113zm1157 -247l0 -469 100 0 0 469 225 0 0 102 -225 0 0 1003 -100 0 0 -1003 -225 0 0 -102 225 0zm562 359l970 0c-24,-77 -64,-144 -121,-201 -100,-100 -221,-150 -361,-150 -141,0 -261,50 -362,150 -59,60 -101,127 -126,201zm-19 104c-2,17 -4,36 -4,56 0,142 50,262 150,361 100,99 220,149 361,149 140,0 261,-50 361,-151 17,-17 33,-35 49,-53l108 38c-13,21 -40,52 -81,92 -120,121 -266,182 -437,182 -170,0 -315,-61 -436,-181 -121,-122 -182,-267 -182,-437 0,-171 61,-317 182,-437 121,-121 266,-181 436,-181 171,0 317,60 437,181 106,107 159,234 159,381l-1103 0zm1562 49c-86,-47 -145,-86 -178,-120 -52,-52 -78,-114 -78,-187 0,-73 26,-135 78,-187 51,-53 114,-79 187,-79 73,0 133,24 182,73 46,47 70,100 70,160l0 5 -88 36c-8,-57 -26,-100 -53,-129 -29,-28 -66,-43 -111,-43 -45,0 -84,16 -116,48 -32,33 -48,71 -48,116 0,45 16,84 48,116 19,19 58,49 118,87 96,51 165,98 205,138 64,65 96,142 96,231 0,91 -32,169 -96,233 -63,64 -141,96 -231,96 -91,0 -169,-32 -232,-96 -64,-64 -96,-134 -96,-210l101 -26c0,66 22,120 67,165 44,44 98,67 160,67 62,0 115,-23 160,-67 45,-45 68,-99 68,-162 0,-62 -23,-116 -68,-159 -24,-24 -72,-59 -145,-106z"/>
  <g id="_728190640">
   <path class="fil3" d="M14158 12033l1361 786 1361 786c87,50 137,136 137,237l0 1571 0 1572c0,101 -50,187 -137,237l-1361 786 -1361 786c-87,50 -187,50 -274,0l-1361 -786 -1361 -786c-87,-50 -137,-136 -137,-237l0 -1572 0 -1571c0,-101 50,-187 137,-237l1361 -786 1361 -786c87,-50 187,-50 274,0z"/>
   <path class="fil4" d="M12148 14722l0 -141c0,-63 44,-114 106,-126l165 -31c20,-75 47,-141 87,-208l-98 -137c-36,-52 -32,-122 15,-165l102 -102c43,-44 114,-51 165,-12l138 98c66,-39 133,-67 208,-86l27 -169c12,-63 63,-106 126,-106l141 0c63,0 114,43 126,106l31 169c75,19 142,47 208,86l138 -98c51,-36 121,-32 165,15l102 99c43,43 47,113 11,165l-94 137c28,51 51,102 71,157 -43,51 -71,114 -79,177l-11 78 -47 20 -63 -47c-67,-47 -146,-71 -228,-71 -12,0 -24,4 -39,4 -67,-200 -279,-310 -479,-243 -201,66 -310,278 -244,479 40,117 130,208 244,243 -8,94 15,188 70,263l44 63c-4,12 -12,27 -16,39l-79 12c-66,12 -125,39 -176,78 -55,-19 -106,-39 -157,-70l-142 98c-51,35 -118,31 -165,-12l-102 -102c-43,-43 -51,-114 -15,-165l98 -137c-40,-67 -67,-134 -87,-208l-165 -32c-58,0 -102,-55 -102,-118zm1783 193c82,-47 173,-87 263,-110l39 -212c12,-79 83,-134 161,-134l181 0c78,0 145,55 161,134l35 212c94,23 181,63 263,110l177 -126c63,-47 153,-39 208,20l126 125c55,55 62,146 19,209l-125 176c47,83 86,173 109,263l212 40c79,11 134,82 134,160l0 181c0,79 -55,145 -134,161l-212 35c-23,95 -62,181 -109,263l125 177c47,63 39,153 -19,208l-126 130c-55,55 -145,63 -208,19l-177 -125c-82,47 -173,86 -263,110l-35 212c-12,78 -83,133 -161,137l-181 0c-78,0 -145,-55 -161,-133l-39 -212c-94,-24 -181,-63 -263,-110l-177 125c-63,47 -153,40 -208,-19l-126 -126c-54,-55 -62,-145 -19,-208l125 -177c-47,-82 -86,-172 -109,-263l-212 -35c-79,-12 -138,-83 -134,-161l0 -181c0,-78 55,-145 134,-161l212 -39c23,-94 62,-180 109,-263l-125 -177c-47,-62 -39,-153 19,-208l126 -125c55,-55 145,-63 208,-20l177 118zm169 1080l82 82 90 90c51,51 130,51 181,0 0,0 0,0 0,0l90 -90 322 -322c51,-51 51,-130 0,-181l0 0c-51,-51 -129,-51 -180,0 0,0 0,0 0,0l-322 318 -83 -74c-51,-51 -129,-51 -180,0l0 0c-47,47 -47,125 0,177z"/>
  </g>
  <g id="_728190384">
   <path class="fil5" d="M7933 1151l1361 785 1361 786c87,51 137,137 137,237l0 1572 0 1572c0,100 -50,187 -137,237l-1361 786 -1361 786c-87,50 -187,50 -274,0l-1361 -786 -1361 -786c-87,-50 -137,-137 -137,-237l0 -1572 0 -1572c0,-100 50,-186 137,-237l1361 -786 1361 -785c87,-51 187,-51 274,0z"/>
   <path id="rect4590" class="fil6" d="M7408 5629l0 204c0,39 5,78 17,113l-403 0c-175,0 -314,75 -314,167 0,92 139,167 314,167l1548 0c174,0 314,-75 314,-167 0,-92 -140,-167 -314,-167l-355 0c12,-35 17,-74 17,-113l0 -204 881 0 0 1 1 0 0 -1c138,0 264,-56 354,-146 91,-91 147,-216 147,-355l0 0 -1 0 0 -1844 1 0 0 0 -1 0c0,-139 -55,-264 -146,-355l0 0c-91,-90 -216,-146 -354,-146l-1 0 -2634 0 0 0c-139,0 -264,56 -355,146l0 1c-90,90 -146,216 -146,354l0 1844 -1 0c0,139 56,264 147,355 91,90 216,147 355,147l0 -1 929 0zm193 -395l0 -206c0,-46 37,-84 83,-84l136 0c46,0 83,38 83,84l0 206c0,46 -37,83 -83,83l-136 0c-46,0 -83,-37 -83,-83l0 0zm-1080 -2025l2471 0c89,0 160,72 160,161l0 1191c0,88 -71,160 -160,160l-2471 0c-89,0 -161,-72 -161,-160l0 -1191c0,-89 72,-161 161,-161l0 0zm29 159l2493 0c24,0 44,20 44,44l0 115c0,24 -20,44 -44,44l-2493 0c-25,0 -44,-20 -44,-44l0 -115c0,-24 19,-44 44,-44l0 0zm2563 -333l-2634 0 0 0c-69,0 -131,28 -176,73l-1 0c-45,45 -73,107 -73,176l0 1844 1 0c0,69 28,131 73,176 45,45 107,73 176,73l0 1 2634 0 0 -1 1 0 0 1c68,0 130,-28 176,-74 45,-45 73,-107 73,-176l0 0 0 0 0 -1844 0 0 0 0 0 0c0,-68 -28,-131 -73,-176l0 0c-45,-45 -108,-73 -176,-73l-1 0z"/>
  </g>
  <g id="_728206928">
   <path class="fil7" d="M7933 12033l1361 786 1361 786c87,50 137,136 137,237l0 1571 0 1572c0,101 -50,187 -137,237l-1361 786 -1361 786c-87,50 -187,50 -274,0l-1361 -786 -1361 -786c-87,-50 -137,-136 -137,-237l0 -1572 0 -1571c0,-101 50,-187 137,-237l1361 -786 1361 -786c87,-50 187,-50 274,0z"/>
   <path class="fil6" d="M9655 14998l0 -298 -398 0 0 -246c0,-286 -244,-518 -531,-518l-233 0 0 -432 -332 0 0 432 -199 0 0 -432 -332 0 0 432 -199 0 0 -432 -332 0 0 432 -246 0c-285,0 -485,232 -485,518l0 246 -431 0 0 298 431 0 0 233 -431 0 0 299 431 0 0 199 -431 0 0 332 431 0 0 267c0,286 200,563 485,563l246 0 0 432 332 0 0 -432 199 0 0 432 332 0 0 -432 199 0 0 432 332 0 0 -432 233 0c285,0 531,-277 531,-563l0 -267 398 0 0 -332 -398 0 0 -199 398 0 0 -299 -398 0 0 -233 398 0zm-2556 -365l1394 0 0 1494 -1394 0 0 -1494zm1760 1826l-2125 0 0 -2158 2125 0 0 2158z"/>
  </g>
  <g id="_728193456">
   <path class="fil8" d="M14158 1151l1361 785 1361 786c87,51 137,137 137,237l0 1572 0 1572c0,100 -50,187 -137,237l-1361 786 -1361 786c-87,50 -187,50 -274,0l-1361 -786 -1361 -786c-87,-50 -137,-137 -137,-237l0 -1572 0 -1572c0,-100 50,-186 137,-237l1361 -786 1361 -785c87,-51 187,-51 274,0z"/>
   <path class="fil6" d="M14966 2723l-93 115 -317 404 -295 0 0 175 -700 0 0 350 700 0 0 175 295 0 317 404 93 115 125 -66 738 -388 -164 -306 -606 317 -328 -426 328 -426 606 317 164 -306 -738 -388 -125 -66zm-2104 345c-297,0 -525,227 -525,524 0,223 128,409 317,486l416 1263 737 0 -486 -1492c41,-76 66,-162 66,-257 0,-297 -228,-524 -525,-524zm0 349c105,0 175,70 175,175 0,105 -70,175 -175,175 -105,0 -175,-70 -175,-175 0,-105 70,-175 175,-175zm-175 2098c-192,0 -350,158 -350,350l0 350 2973 0 0 -350c0,-192 -158,-350 -350,-350l-2273 0z"/>
  </g>
  <g id="_728203440">
   <path class="fil9" d="M28623 10832l0 231 -2241 0 0 -725 1127 0 126 0 131 0 0 -616c165,-47 317,-208 353,-373l2406 0c-17,-89 -33,-178 -53,-263l-2366 0c-63,-198 -251,-343 -471,-343 -274,0 -498,224 -498,498 0,230 168,425 366,481l0 352 -2841 0c-59,-494 -477,-863 -982,-863 -504,0 -919,369 -982,863l-501 0 0 -214 0 -247 -247 0 -1199 0c-10,86 -20,175 -23,263l1206 0 0 758 -1200 0c7,89 17,178 30,264l1186 0 247 0 0 -260 0 -300 501 0c60,494 478,863 982,863 505,0 920,-369 982,-863l1490 0 0 731 0 257 247 0 4073 0c20,-85 39,-174 53,-263l-913 0 0 -231 -989 0zm1977 -1483l0 0 0 -263 0 263zm0 1714l0 0 0 263 0 -263z"/>
   <path class="fil9" d="M30078 11856c-49,-73 -98,-147 -152,-217l-163 0 -1873 0 -1525 0 -212 0 0 203 0 218c-135,38 -247,149 -285,285l-176 0 0 -733 -814 0 0 733 -245 0 0 -516 -814 0 0 516 -833 0c-33,70 -65,143 -95,217l2975 0c46,163 203,301 393,301 225,0 410,-185 410,-410 0,-190 -138,-350 -301,-396l0 -204 1520 0 0 407 1873 0 0 -407 317 0 0 3zm662 -217l0 0 0 217 0 -217z"/>
  </g>
  <g id="_728207952">
   <path class="fil10" d="M4820 6592l1361 786 1361 785c87,51 137,137 137,238l0 1571 0 1572c0,100 -50,187 -137,237l-1361 786 -1361 786c-87,50 -187,50 -274,0l-1361 -786 -1361 -786c-87,-50 -137,-137 -137,-237l0 -1572 0 -1571c0,-101 50,-187 137,-238l1361 -785 1361 -786c87,-50 187,-50 274,0z"/>
   <path class="fil6" d="M6319 8557l-3271 0c-79,0 -142,63 -142,141l0 2548c0,78 63,142 142,142l3270 0c79,0 142,-64 142,-142l0 -2548c0,-78 -63,-141 -142,-141l1 0zm-2610 1803l589 -315 0 217 -379 194 379 196 0 218 -589 -315 0 -195zm1949 197l-590 313 0 -217 379 -194 -379 -196 0 -217 590 316 0 195zm-1230 373l326 -1083 184 0 -326 1083 -184 0zm-271 -1998c56,0 102,45 102,101 0,56 -46,102 -102,102 -56,0 -101,-46 -101,-102 0,-56 45,-101 101,-101zm-413 0c56,0 102,45 102,101 0,56 -46,102 -102,102 -56,0 -101,-46 -101,-102 0,-56 45,-101 101,-101zm-413 0c56,0 102,45 102,101 0,56 -46,102 -102,102 -56,0 -101,-46 -101,-102 0,-56 45,-101 101,-101zm-262 410l3228 0 0 -622 -3228 0 0 622zm3228 163l-3228 0 0 1720 3228 0 0 -1720z"/>
  </g>
 </g>
</svg>
